<?xml version="1.0" encoding="UTF-8"?>
<svg id="Layer_2" data-name="Layer 2" xmlns="http://www.w3.org/2000/svg" xmlns:xlink="http://www.w3.org/1999/xlink" viewBox="0 0 350 52">
  <defs>
    <style>
      .cls-1 {
        clip-path: url(#clippath);
      }

      .cls-2 {
        fill: none;
      }

      .cls-2, .cls-3 {
        stroke-width: 0px;
      }

      .cls-4 {
        opacity: .9;
      }

      .cls-3 {
        fill: #fff;
      }
    </style>
    <clipPath id="clippath">
      <rect class="cls-2" width="350" height="52"/>
    </clipPath>
  </defs>
  <g id="Layer_1-2" data-name="Layer 1">
    <g class="cls-4">
      <g class="cls-1">
        <path class="cls-3" d="m4,41.14L21.32,8h8.01l5.24,33.14h-6.86l-.79-6.46h-12.28l-3.29,6.46H4Zm13.5-12.22h8.71l-1.8-13.99-6.91,13.99Z"/>
        <path class="cls-3" d="m37.21,41.14l5.8-33.14h6.55l-2.03,11.52c.89-1.24,1.87-2.15,2.96-2.72,1.09-.57,2.36-.85,3.81-.85,2.65,0,4.75.93,6.3,2.78,1.54,1.85,2.32,4.36,2.32,7.53,0,4.45-1.13,8.17-3.39,11.16-2.26,2.98-5.06,4.48-8.4,4.48-1.83,0-3.32-.44-4.47-1.32-1.15-.88-2.01-2.24-2.6-4.08l-.74,4.66h-6.12Zm14.65-20.05c-1.83,0-3.34.89-4.52,2.68-1.19,1.79-1.78,4.04-1.78,6.77,0,1.83.38,3.21,1.12,4.14.75.93,1.88,1.4,3.38,1.4,1.8,0,3.3-.93,4.49-2.78,1.19-1.85,1.79-4.12,1.79-6.81,0-1.71-.4-3.04-1.18-3.98-.79-.95-1.89-1.42-3.3-1.42"/>
        <path class="cls-3" d="m81.44,41.14l.74-4.14c-1.02,1.64-2.14,2.84-3.36,3.62-1.22.78-2.62,1.17-4.2,1.17-2.68,0-4.8-.94-6.34-2.83-1.55-1.89-2.32-4.46-2.32-7.72,0-4.34,1.08-7.98,3.25-10.92,2.17-2.95,4.86-4.42,8.09-4.42,1.87,0,3.38.39,4.5,1.17,1.12.78,1.99,2.03,2.59,3.76l2.34-12.83h6.37l-5.8,33.14h-5.85Zm-2.81-19.67c-1.71,0-3.16.91-4.36,2.72-1.2,1.82-1.8,4.02-1.8,6.62,0,1.83.39,3.22,1.16,4.16s1.9,1.42,3.39,1.42c1.86,0,3.36-.88,4.49-2.65,1.13-1.77,1.7-4.1,1.7-6.98,0-1.72-.39-3.04-1.17-3.94-.78-.9-1.91-1.35-3.4-1.35"/>
        <path class="cls-3" d="m93.98,30.59c0-4.29,1.32-7.82,3.95-10.59,2.63-2.77,6.01-4.15,10.14-4.15,3.53,0,6.28,1,8.27,3,1.99,2,2.98,4.77,2.98,8.31,0,4.27-1.3,7.8-3.9,10.56-2.6,2.77-5.94,4.15-10,4.15-3.51,0-6.29-1.02-8.35-3.06-2.05-2.04-3.08-4.79-3.08-8.23m13.72-9.45c-1.99,0-3.69.94-5.09,2.82-1.39,1.88-2.09,4.14-2.09,6.76,0,1.82.45,3.24,1.36,4.26.91,1.03,2.17,1.54,3.79,1.54,2.01,0,3.69-.91,5.05-2.72,1.36-1.81,2.04-4.07,2.04-6.77,0-1.85-.45-3.29-1.34-4.33-.89-1.04-2.13-1.56-3.72-1.56"/>
        <path class="cls-3" d="m121.58,41.14l4.39-24.57h5.9l-.74,3.82c1.41-1.62,2.74-2.77,4-3.46,1.26-.69,2.66-1.04,4.19-1.04s2.83.35,3.83,1.06c.99.71,1.7,1.78,2.14,3.22,1.3-1.54,2.56-2.64,3.77-3.3,1.21-.65,2.58-.98,4.11-.98,2.05,0,3.66.6,4.81,1.8,1.16,1.2,1.73,2.87,1.73,5.02,0,.36-.02.74-.06,1.12-.04.39-.1.83-.19,1.33l-2.95,15.98h-6.34l2.9-16.31c.03-.22.05-.4.07-.52.02-.12.02-.23.02-.32,0-.88-.24-1.55-.71-2-.47-.45-1.17-.67-2.1-.67-1.35,0-2.54.63-3.56,1.88-1.02,1.25-1.72,2.97-2.11,5.14l-2.38,12.8h-6.46l2.9-16.31c.03-.16.05-.32.07-.47s.02-.34.02-.58c0-.78-.22-1.38-.67-1.81-.45-.43-1.09-.64-1.91-.64-1.41,0-2.63.6-3.66,1.79-1.03,1.19-1.74,2.85-2.15,4.98l-2.48,13.05h-6.37Z"/>
        <path class="cls-3" d="m162.4,41.14l4.3-24.57h6.43l-4.27,24.57h-6.46Zm4.79-27.38l1.01-5.76h6.46l-.97,5.76h-6.5Z"/>
        <path class="cls-3" d="m174.52,41.14l4.32-24.57h5.92l-.7,3.78c1.32-1.6,2.64-2.76,3.95-3.48,1.31-.71,2.78-1.07,4.4-1.07,2.19,0,3.93.61,5.23,1.82,1.3,1.21,1.95,2.85,1.95,4.9,0,.48-.02.95-.07,1.42-.04.46-.11.94-.2,1.44l-2.81,15.75h-6.5l2.72-15.57c.06-.32.1-.61.14-.89.03-.28.04-.51.04-.69,0-.9-.26-1.59-.79-2.06-.53-.47-1.29-.71-2.29-.71-1.65,0-3.06.59-4.23,1.78-1.17,1.18-1.94,2.82-2.32,4.9l-2.34,13.23h-6.41Z"/>
        <path class="cls-3" d="m216.42,38.69c-1.08,1.07-2.16,1.83-3.24,2.31-1.08.47-2.27.71-3.58.71-2.25,0-4.04-.64-5.35-1.93-1.32-1.29-1.98-3-1.98-5.13,0-2.74.79-4.81,2.37-6.2,1.58-1.39,4.25-2.28,8-2.69.36-.04.85-.1,1.46-.16,2.95-.28,4.43-1.14,4.43-2.57,0-.66-.34-1.19-1.01-1.6-.68-.4-1.58-.61-2.72-.61s-1.97.21-2.58.63c-.61.42-.99,1.07-1.16,1.96h-6.26c.41-2.55,1.45-4.43,3.15-5.65,1.69-1.21,4.09-1.82,7.2-1.82s5.51.61,7.26,1.85c1.75,1.23,2.62,2.92,2.62,5.06,0,.22-.01.45-.03.69-.02.23-.06.48-.1.73l-2.27,13c-.05.32-.08.6-.1.84-.02.25-.03.48-.03.69,0,.4.05.74.15,1,.1.26.27.51.51.73v.61h-6.73v-2.45Zm1.19-9.34c-.97.3-2.31.61-4.01.95-3.26.61-4.88,1.87-4.88,3.76,0,.74.26,1.32.76,1.77.51.44,1.21.66,2.09.66,1.38,0,2.59-.4,3.62-1.21,1.03-.81,1.66-1.85,1.89-3.1l.52-2.81Z"/>
        <polygon class="cls-3" points="227.98 41.14 233.74 8 240.2 8 234.44 41.14 227.98 41.14"/>
        <path class="cls-3" d="m253.95,41.14l5.8-33.14h11.36c3.7,0,6.56.87,8.56,2.61,2,1.74,3,4.21,3,7.4,0,3.78-1.18,6.68-3.53,8.71s-5.75,3.04-10.19,3.04h-6.12l-2.07,11.39h-6.82Zm9.94-17.01h5.33c2.23,0,3.91-.48,5.04-1.44,1.12-.96,1.69-2.4,1.69-4.32,0-1.41-.43-2.49-1.28-3.24s-2.08-1.12-3.69-1.12h-5.33l-1.76,10.12Z"/>
        <path class="cls-3" d="m296.9,38.69c-1.08,1.07-2.16,1.83-3.24,2.31-1.08.47-2.27.71-3.58.71-2.25,0-4.04-.64-5.35-1.93-1.32-1.29-1.98-3-1.98-5.13,0-2.74.79-4.81,2.37-6.2,1.58-1.39,4.25-2.28,8-2.69.36-.04.85-.1,1.46-.16,2.95-.28,4.43-1.14,4.43-2.57,0-.66-.34-1.19-1.01-1.6-.68-.4-1.58-.61-2.72-.61s-1.97.21-2.58.63c-.61.42-.99,1.07-1.16,1.96h-6.26c.41-2.55,1.45-4.43,3.15-5.65,1.69-1.21,4.09-1.82,7.2-1.82s5.51.61,7.26,1.85c1.75,1.23,2.62,2.92,2.62,5.06,0,.22-.01.45-.03.69-.02.23-.06.48-.1.73l-2.27,13c-.05.32-.08.6-.1.84-.02.25-.03.48-.03.69,0,.4.05.74.15,1,.1.26.27.51.51.73v.61h-6.73v-2.45Zm1.19-9.34c-.97.3-2.31.61-4.01.95-3.26.61-4.88,1.87-4.88,3.76,0,.74.26,1.32.76,1.77.51.44,1.21.66,2.09.66,1.38,0,2.59-.4,3.62-1.21,1.03-.81,1.66-1.85,1.89-3.1l.52-2.81Z"/>
        <path class="cls-3" d="m308.46,41.14l4.3-24.57h6.43l-4.27,24.57h-6.46Zm4.79-27.38l1.01-5.76h6.46l-.97,5.76h-6.5Z"/>
        <path class="cls-3" d="m320.59,41.14l4.32-24.57h5.92l-.7,3.78c1.32-1.6,2.64-2.76,3.95-3.48,1.31-.71,2.78-1.07,4.4-1.07,2.19,0,3.93.61,5.23,1.82,1.3,1.21,1.95,2.85,1.95,4.9,0,.48-.02.95-.07,1.42-.04.46-.11.94-.2,1.44l-2.81,15.75h-6.5l2.72-15.57c.06-.32.1-.61.14-.89.03-.28.04-.51.04-.69,0-.9-.26-1.59-.79-2.06-.53-.47-1.29-.71-2.29-.71-1.65,0-3.06.59-4.23,1.78-1.17,1.18-1.94,2.82-2.32,4.9l-2.34,13.23h-6.41Z"/>
      </g>
    </g>
  </g>
</svg>