<?xml version="1.0" encoding="UTF-8"?>
<svg id="Layer_2" data-name="Layer 2" xmlns="http://www.w3.org/2000/svg" xmlns:xlink="http://www.w3.org/1999/xlink" viewBox="0 0 283 52">
  <defs>
    <style>
      .cls-1 {
        clip-path: url(#clippath);
      }

      .cls-2 {
        fill: none;
      }

      .cls-2, .cls-3 {
        stroke-width: 0px;
      }

      .cls-4 {
        opacity: .9;
      }

      .cls-3 {
        fill: #fff;
      }
    </style>
    <clipPath id="clippath">
      <rect class="cls-2" width="283" height="52"/>
    </clipPath>
  </defs>
  <g id="Layer_1-2" data-name="Layer 1">
    <g class="cls-4">
      <g class="cls-1">
        <path class="cls-3" d="m27.86,26.8h6.97c-.64,3.81-2.32,6.79-5.02,8.94-2.7,2.15-6.11,3.23-10.24,3.23-4.44,0-7.92-1.32-10.43-3.97-2.51-2.65-3.77-6.32-3.77-11.01,0-5.77,1.62-10.5,4.86-14.19,3.24-3.68,7.42-5.52,12.55-5.52,4.12,0,7.32,1.04,9.58,3.12,2.27,2.08,3.43,5.03,3.49,8.85h-6.75v-.18c0-1.88-.59-3.35-1.76-4.42-1.17-1.07-2.77-1.61-4.79-1.61-2.94,0-5.36,1.33-7.26,3.99-1.9,2.66-2.85,6.06-2.85,10.18,0,2.77.67,4.9,2.03,6.37,1.35,1.47,3.29,2.2,5.83,2.2,1.99,0,3.65-.52,4.97-1.56,1.32-1.04,2.17-2.52,2.57-4.42"/>
        <path class="cls-3" d="m38.09,27.63c0-4.29,1.32-7.82,3.95-10.59,2.63-2.77,6.01-4.15,10.14-4.15,3.53,0,6.28,1,8.27,3,1.99,2,2.98,4.77,2.98,8.31,0,4.27-1.3,7.8-3.9,10.56-2.6,2.77-5.94,4.15-10,4.15-3.51,0-6.29-1.02-8.35-3.06-2.05-2.04-3.08-4.79-3.08-8.23m13.72-9.45c-1.99,0-3.69.94-5.09,2.82-1.39,1.88-2.09,4.14-2.09,6.76,0,1.82.45,3.24,1.36,4.26.91,1.03,2.17,1.54,3.79,1.54,2.01,0,3.69-.91,5.05-2.72,1.36-1.81,2.04-4.07,2.04-6.77,0-1.85-.45-3.29-1.34-4.33-.89-1.04-2.13-1.56-3.72-1.56"/>
        <path class="cls-3" d="m65.7,38.18l4.32-24.57h5.92l-.7,3.78c1.32-1.6,2.64-2.76,3.95-3.48,1.31-.71,2.78-1.07,4.4-1.07,2.19,0,3.93.61,5.23,1.82,1.3,1.21,1.95,2.85,1.95,4.9,0,.48-.02.95-.07,1.42-.04.46-.11.94-.2,1.44l-2.81,15.75h-6.5l2.72-15.57c.06-.32.1-.61.14-.89.03-.28.04-.51.04-.69,0-.9-.26-1.59-.79-2.06-.53-.47-1.29-.71-2.29-.71-1.65,0-3.06.59-4.23,1.78-1.17,1.18-1.94,2.82-2.32,4.9l-2.34,13.23h-6.41Z"/>
        <path class="cls-3" d="m93.62,29.84h6.12c.06,1.32.48,2.35,1.27,3.09.79.74,1.86,1.11,3.21,1.11,1.21,0,2.13-.22,2.73-.66.61-.44.91-1.1.91-1.97,0-1.1-1.18-2.03-3.55-2.79l-.22-.07c-3.33-1.08-5.55-2.2-6.67-3.35-1.12-1.15-1.68-2.69-1.68-4.61,0-2.38.85-4.24,2.57-5.57,1.71-1.33,4.1-1.99,7.18-1.99s5.49.71,7.2,2.14c1.71,1.43,2.58,3.43,2.61,6.01h-6.12c-.15-1.09-.57-1.93-1.27-2.52-.7-.58-1.63-.88-2.8-.88-1.02,0-1.82.2-2.4.6-.58.4-.87.95-.87,1.65,0,.99,1.43,1.93,4.3,2.81l.16.04c3.05.95,5.11,1.98,6.19,3.12,1.08,1.13,1.62,2.67,1.62,4.62,0,2.54-.9,4.55-2.69,6.05-1.79,1.5-4.22,2.25-7.28,2.25-3.33,0-5.91-.78-7.75-2.35-1.84-1.57-2.76-3.78-2.76-6.65v-.09Z"/>
        <path class="cls-3" d="m128.14,38.41c-.56.2-1.11.34-1.68.43-.56.09-1.14.14-1.72.14-2.18,0-3.77-.38-4.77-1.12-1.01-.75-1.51-1.93-1.51-3.53,0-.33.01-.66.03-.99.02-.33.06-.67.12-1.01l2.43-14.04h-3.42l.79-4.66h3.42l1.28-7.27h6.41l-1.31,7.27h3.51l-.74,4.66h-3.49l-2.07,11.74c-.06.35-.13.73-.21,1.15-.08.42-.12.65-.12.7,0,.51.13.88.38,1.1s.67.34,1.24.34c.19,0,.46-.03.79-.09s.86-.19,1.6-.38l-.97,5.58Z"/>
        <path class="cls-3" d="m131.92,38.18l4.3-24.57h6.43l-4.27,24.57h-6.46Zm4.79-27.38l1.01-5.76h6.46l-.97,5.76h-6.5Z"/>
        <path class="cls-3" d="m142.43,47.99l6.01-34.38h5.8l-.74,4.03c.99-1.65,2.09-2.85,3.31-3.61,1.21-.76,2.65-1.14,4.3-1.14,2.7,0,4.83.91,6.4,2.72,1.57,1.82,2.35,4.3,2.35,7.45,0,4.5-1.09,8.25-3.28,11.26-2.19,3.01-4.91,4.51-8.15,4.51-1.8,0-3.29-.43-4.47-1.28-1.18-.86-2.04-2.14-2.58-3.85l-2.54,14.29h-6.41Zm16.36-29.9c-1.8,0-3.31.91-4.52,2.72-1.22,1.82-1.82,4.09-1.82,6.82,0,1.74.4,3.1,1.19,4.07.79.98,1.9,1.46,3.31,1.46,1.84,0,3.35-.92,4.52-2.76,1.17-1.84,1.76-4.23,1.76-7.17,0-1.63-.39-2.9-1.16-3.8-.77-.9-1.86-1.35-3.27-1.35"/>
        <path class="cls-3" d="m186.3,35.73c-1.08,1.07-2.16,1.83-3.24,2.31-1.08.47-2.27.71-3.58.71-2.25,0-4.04-.64-5.35-1.93-1.32-1.29-1.98-3-1.98-5.13,0-2.74.79-4.81,2.37-6.2,1.58-1.39,4.25-2.28,8-2.69.36-.04.85-.1,1.46-.16,2.95-.28,4.43-1.14,4.43-2.57,0-.66-.34-1.19-1.01-1.6-.68-.4-1.58-.61-2.72-.61s-1.97.21-2.58.63c-.61.42-.99,1.07-1.16,1.96h-6.26c.41-2.55,1.45-4.43,3.15-5.65,1.69-1.21,4.09-1.82,7.2-1.82s5.51.61,7.26,1.85c1.75,1.23,2.62,2.92,2.62,5.06,0,.22-.01.45-.03.69-.02.23-.06.48-.1.73l-2.27,13c-.05.32-.08.6-.1.84-.02.25-.03.48-.03.69,0,.4.05.74.15,1,.1.26.27.51.51.73v.61h-6.73v-2.45Zm1.19-9.34c-.97.3-2.31.61-4.01.95-3.26.61-4.88,1.87-4.88,3.76,0,.74.26,1.32.76,1.77.51.44,1.21.66,2.09.66,1.38,0,2.59-.4,3.62-1.21,1.03-.81,1.66-1.85,1.89-3.1l.52-2.81Z"/>
        <path class="cls-3" d="m208.69,38.41c-.56.2-1.11.34-1.68.43-.56.09-1.14.14-1.72.14-2.18,0-3.77-.38-4.77-1.12-1.01-.75-1.51-1.93-1.51-3.53,0-.33.01-.66.03-.99.02-.33.06-.67.12-1.01l2.43-14.04h-3.42l.79-4.66h3.42l1.28-7.27h6.41l-1.31,7.27h3.51l-.74,4.66h-3.49l-2.07,11.74c-.06.35-.13.73-.21,1.15-.08.42-.12.65-.12.7,0,.51.13.88.38,1.1s.67.34,1.24.34c.19,0,.46-.03.79-.09s.86-.19,1.6-.38l-.97,5.58Z"/>
        <path class="cls-3" d="m212.47,38.18l4.3-24.57h6.43l-4.27,24.57h-6.46Zm4.79-27.38l1.01-5.76h6.46l-.97,5.76h-6.5Z"/>
        <path class="cls-3" d="m225.38,27.63c0-4.29,1.32-7.82,3.95-10.59,2.63-2.77,6.01-4.15,10.14-4.15,3.53,0,6.28,1,8.27,3,1.99,2,2.98,4.77,2.98,8.31,0,4.27-1.3,7.8-3.9,10.56-2.6,2.77-5.94,4.15-10,4.15-3.51,0-6.29-1.02-8.35-3.06-2.06-2.04-3.08-4.79-3.08-8.23m13.72-9.45c-1.99,0-3.69.94-5.08,2.82-1.4,1.88-2.09,4.14-2.09,6.76,0,1.82.45,3.24,1.36,4.26.91,1.03,2.17,1.54,3.79,1.54,2.01,0,3.69-.91,5.05-2.72,1.36-1.81,2.04-4.07,2.04-6.77,0-1.85-.45-3.29-1.34-4.33-.89-1.04-2.13-1.56-3.72-1.56"/>
        <path class="cls-3" d="m252.99,38.18l4.32-24.57h5.92l-.7,3.78c1.32-1.6,2.64-2.76,3.95-3.48,1.31-.71,2.78-1.07,4.4-1.07,2.19,0,3.93.61,5.23,1.82,1.3,1.21,1.95,2.85,1.95,4.9,0,.48-.02.95-.07,1.42-.04.46-.11.94-.2,1.44l-2.81,15.75h-6.5l2.72-15.57c.06-.32.1-.61.14-.89.03-.28.04-.51.04-.69,0-.9-.26-1.59-.79-2.06-.53-.47-1.29-.71-2.29-.71-1.65,0-3.06.59-4.23,1.78-1.17,1.18-1.94,2.82-2.32,4.9l-2.34,13.23h-6.41Z"/>
      </g>
    </g>
  </g>
</svg>