<?xml version="1.0" encoding="UTF-8"?>
<svg id="Layer_2" data-name="Layer 2" xmlns="http://www.w3.org/2000/svg" xmlns:xlink="http://www.w3.org/1999/xlink" viewBox="0 0 190 52">
  <defs>
    <style>
      .cls-1 {
        clip-path: url(#clippath);
      }

      .cls-2 {
        fill: none;
      }

      .cls-2, .cls-3 {
        stroke-width: 0px;
      }

      .cls-4 {
        opacity: .9;
      }

      .cls-3 {
        fill: #fff;
      }
    </style>
    <clipPath id="clippath">
      <rect class="cls-2" width="190" height="52"/>
    </clipPath>
  </defs>
  <g id="Layer_1-2" data-name="Layer 1">
    <g class="cls-4">
      <g class="cls-1">
        <path class="cls-3" d="m3,42.14L8.85,9h11.83c4.35,0,7.73,1.19,10.15,3.58,2.42,2.38,3.62,5.71,3.62,9.99,0,2.96-.49,5.74-1.46,8.36-.98,2.62-2.34,4.82-4.09,6.6-1.64,1.65-3.54,2.83-5.72,3.54-2.18.71-5.13,1.07-8.86,1.07H3Zm7.97-5.85h5.49c1.99,0,3.68-.36,5.06-1.08,1.38-.72,2.53-1.84,3.44-3.35.78-1.29,1.38-2.73,1.81-4.32.43-1.59.64-3.17.64-4.75,0-2.5-.59-4.41-1.76-5.7-1.17-1.3-2.87-1.95-5.11-1.95h-5.8l-3.78,21.15Z"/>
        <path class="cls-3" d="m36.43,42.14l4.3-24.57h6.43l-4.27,24.57h-6.46Zm4.79-27.38l1.01-5.76h6.46l-.97,5.76h-6.5Z"/>
        <path class="cls-3" d="m62.76,39.69c-1.08,1.07-2.16,1.83-3.24,2.31-1.08.47-2.27.71-3.58.71-2.25,0-4.04-.64-5.35-1.93-1.32-1.29-1.98-3-1.98-5.13,0-2.74.79-4.81,2.37-6.2,1.58-1.39,4.25-2.28,8-2.69.36-.04.85-.1,1.46-.16,2.95-.28,4.43-1.14,4.43-2.57,0-.66-.34-1.19-1.01-1.6-.68-.4-1.58-.61-2.72-.61s-1.97.21-2.58.63c-.61.42-.99,1.07-1.16,1.96h-6.26c.41-2.55,1.45-4.43,3.15-5.65,1.69-1.21,4.09-1.82,7.2-1.82s5.51.61,7.26,1.85c1.75,1.23,2.62,2.92,2.62,5.06,0,.22-.01.45-.03.69-.02.23-.06.48-.1.73l-2.27,13c-.04.32-.08.6-.1.84-.02.25-.03.48-.03.69,0,.4.05.74.15,1,.1.26.27.51.51.73v.61h-6.73v-2.45Zm1.19-9.34c-.97.3-2.31.61-4.01.95-3.26.61-4.88,1.87-4.88,3.76,0,.74.26,1.32.77,1.77.51.44,1.21.66,2.09.66,1.38,0,2.59-.4,3.62-1.21s1.67-1.85,1.89-3.1l.52-2.81Z"/>
        <path class="cls-3" d="m74.32,42.14l4.39-24.57h5.85l-.97,4.79c.99-1.93,2.08-3.33,3.26-4.18,1.19-.85,2.63-1.28,4.34-1.28.26,0,.46,0,.61.01.15,0,.29.02.41.03l-1.21,6.82c-.54-.12-.98-.2-1.33-.25-.34-.04-.64-.07-.88-.07-1.56,0-2.83.58-3.8,1.73-.98,1.15-1.69,2.94-2.14,5.36l-2.07,11.61h-6.46Z"/>
        <path class="cls-3" d="m91.65,42.14l4.39-24.57h5.85l-.97,4.79c.99-1.93,2.08-3.33,3.26-4.18,1.19-.85,2.63-1.28,4.34-1.28.26,0,.46,0,.61.01.15,0,.28.02.4.03l-1.21,6.82c-.54-.12-.98-.2-1.33-.25-.35-.04-.64-.07-.88-.07-1.56,0-2.83.58-3.8,1.73-.98,1.15-1.69,2.94-2.14,5.36l-2.07,11.61h-6.46Z"/>
        <path class="cls-3" d="m119.16,20.52c1.38-1.39,2.64-2.36,3.79-2.9,1.15-.54,2.48-.81,3.99-.81,2.15,0,3.86.62,5.15,1.84,1.29,1.23,1.93,2.86,1.93,4.88,0,.39-.03.82-.08,1.29-.05.47-.13.99-.24,1.54l-2.81,15.77h-6.5l2.72-15.57c.06-.32.1-.61.14-.89.03-.28.05-.51.05-.69,0-.92-.26-1.61-.77-2.07-.51-.46-1.27-.7-2.27-.7-1.65,0-3.07.6-4.25,1.79-1.18,1.19-1.96,2.82-2.34,4.89l-2.3,13.23h-6.41l5.81-33.14h6.46l-2.07,11.52Z"/>
        <path class="cls-3" d="m152.98,35.1h7.04c-.66,2.43-2.04,4.33-4.14,5.71-2.1,1.38-4.65,2.07-7.65,2.07-3.36,0-5.97-1.02-7.84-3.06-1.87-2.04-2.8-4.89-2.8-8.55,0-4.2,1.18-7.64,3.54-10.32,2.36-2.68,5.4-4.02,9.12-4.02,3.38,0,6.02.96,7.92,2.87,1.9,1.91,2.86,4.55,2.86,7.91,0,.46-.03.99-.08,1.59-.05.59-.16,1.49-.33,2.69h-16.63v.16c0,1.74.4,3.08,1.19,4.02.79.94,1.93,1.41,3.4,1.41,1.01,0,1.87-.2,2.59-.61.72-.41,1.32-1.03,1.8-1.87m-8.39-7.65h9.92c0-.09,0-.23.02-.42.02-.19.02-.33.02-.42,0-1.51-.36-2.66-1.09-3.44s-1.8-1.17-3.21-1.17-2.7.47-3.68,1.42c-.98.94-1.65,2.29-1.99,4.03"/>
        <path class="cls-3" d="m177.64,39.69c-1.08,1.07-2.16,1.83-3.24,2.31-1.08.47-2.27.71-3.58.71-2.25,0-4.04-.64-5.35-1.93-1.32-1.29-1.98-3-1.98-5.13,0-2.74.79-4.81,2.37-6.2,1.58-1.39,4.25-2.28,8-2.69.36-.04.85-.1,1.46-.16,2.95-.28,4.43-1.14,4.43-2.57,0-.66-.34-1.19-1.01-1.6-.68-.4-1.58-.61-2.72-.61s-1.97.21-2.58.63c-.61.42-.99,1.07-1.16,1.96h-6.26c.41-2.55,1.45-4.43,3.15-5.65,1.69-1.21,4.09-1.82,7.2-1.82s5.51.61,7.26,1.85c1.75,1.23,2.62,2.92,2.62,5.06,0,.22-.01.45-.03.69-.02.23-.06.48-.1.73l-2.27,13c-.04.32-.08.6-.1.84-.02.25-.03.48-.03.69,0,.4.05.74.15,1,.1.26.27.51.51.73v.61h-6.73v-2.45Zm1.19-9.34c-.97.3-2.31.61-4.01.95-3.26.61-4.88,1.87-4.88,3.76,0,.74.26,1.32.77,1.77.51.44,1.21.66,2.09.66,1.38,0,2.59-.4,3.62-1.21s1.67-1.85,1.89-3.1l.52-2.81Z"/>
      </g>
    </g>
  </g>
</svg>