<?xml version="1.0" encoding="UTF-8"?>
<svg id="Layer_2" data-name="Layer 2" xmlns="http://www.w3.org/2000/svg" viewBox="0 0 204.109 39.361">
  <defs>
    <style>
      .cls-1 {
        fill: #231f20;
        stroke-width: 0px;
      }
    </style>
  </defs>
  <g id="Layer_1-2" data-name="Layer 1">
    <g>
      <path class="cls-1" d="M176.485,23.085c-.051-2.055-.575-3.612-1.582-4.679-1.007-1.067-2.237-1.601-3.681-1.601-1.549,0-2.823.568-3.829,1.694-1.006,1.12-1.505,2.65-1.488,4.585h10.58ZM176.082,30.242l7.062,1.179c-.91,2.589-2.34,4.559-4.3,5.91-1.953,1.359-4.405,2.03-7.348,2.03-4.653,0-8.094-1.515-10.33-4.561-1.764-2.433-2.649-5.513-2.649-9.221,0-4.44,1.161-7.914,3.483-10.426,2.315-2.512,5.247-3.768,8.792-3.768,3.982,0,7.123,1.316,9.429,3.948,2.296,2.632,3.397,6.659,3.303,12.087h-17.747c.052,2.099.619,3.734,1.711,4.894,1.093,1.171,2.461,1.756,4.087,1.756,1.109,0,2.039-.301,2.796-.903.757-.611,1.333-1.583,1.712-2.925ZM147.281,38.758h-7.081V11.996h6.572v3.803c1.128-1.799,2.142-2.986,3.037-3.553.903-.568,1.918-.861,3.063-.861,1.616,0,3.165.448,4.662,1.342l-2.193,6.169c-1.188-.766-2.298-1.154-3.322-1.154-.997,0-1.832.267-2.519.818-.698.541-1.231,1.531-1.627,2.96-.395,1.427-.592,4.42-.592,8.972v8.266ZM126.593,38.758v-4.009c-.982,1.427-2.263,2.556-3.846,3.381-1.59.817-3.268,1.23-5.033,1.23-1.797,0-3.407-.397-4.834-1.179-1.428-.792-2.461-1.901-3.106-3.328-.636-1.428-.954-3.406-.954-5.927V11.996h7.08v12.294c0,3.767.128,6.073.395,6.924.259.845.731,1.515,1.419,2.013.689.5,1.565.741,2.624.741,1.213,0,2.297-.327,3.252-.989.955-.672,1.609-1.489,1.962-2.469.352-.99.532-3.398.532-7.226v-11.287h7.08v26.762h-6.572ZM103.606,19.91l-6.985,1.257c-.232-1.393-.766-2.443-1.6-3.149-.834-.705-1.909-1.058-3.235-1.058-1.771,0-3.173.611-4.223,1.824-1.05,1.222-1.574,3.26-1.574,6.117,0,3.174.533,5.42,1.6,6.727,1.067,1.307,2.494,1.962,4.292,1.962,1.351,0,2.443-.379,3.303-1.145.861-.767,1.464-2.082,1.816-3.94l6.959,1.178c-.723,3.192-2.116,5.61-4.164,7.235-2.047,1.635-4.791,2.443-8.24,2.443-3.915,0-7.038-1.23-9.361-3.699-2.331-2.469-3.492-5.892-3.492-10.263,0-4.414,1.169-7.855,3.501-10.315,2.341-2.469,5.498-3.699,9.481-3.699,3.26,0,5.849.705,7.777,2.108,1.918,1.402,3.303,3.544,4.145,6.417ZM33.841,11.996h6.53v3.648c2.331-2.839,5.118-4.259,8.344-4.259,1.711,0,3.201.353,4.456,1.058,1.264.705,2.298,1.772,3.106,3.201,1.171-1.428,2.443-2.495,3.802-3.201,1.36-.705,2.813-1.058,4.362-1.058,1.961,0,3.63.405,4.989,1.204,1.36.792,2.374,1.97,3.046,3.511.49,1.143.73,2.993.73,5.549v17.11h-7.079v-15.296c0-2.657-.242-4.369-.731-5.143-.654-1.007-1.661-1.515-3.019-1.515-.999,0-1.928.301-2.806.912-.868.603-1.496,1.489-1.883,2.658-.386,1.171-.584,3.011-.584,5.532v12.853h-7.081v-14.667c0-2.606-.129-4.283-.379-5.041-.248-.757-.645-1.317-1.169-1.686-.535-.37-1.248-.56-2.16-.56-1.093,0-2.072.293-2.942.886-.878.586-1.506,1.436-1.883,2.547-.379,1.109-.568,2.941-.568,5.513v13.007h-7.081V11.996ZM0,38.758V1.811h27.39v6.254H7.458v8.19h18.547v6.219H7.458v10.057h20.638v6.228H0Z"/>
      <path class="cls-1" d="M194.384,0c2.718,0,5.021.918,6.901,2.76,1.883,1.837,2.824,4.092,2.824,6.765s-.942,4.915-2.816,6.751c-1.88,1.843-4.181,2.762-6.909,2.762s-5.021-.92-6.895-2.762c-1.876-1.836-2.815-4.088-2.815-6.751s.939-4.927,2.819-6.765c1.885-1.842,4.18-2.76,6.891-2.76M202.161,9.525c0-2.214-.75-4.09-2.253-5.618-1.497-1.528-3.339-2.294-5.524-2.294s-4.012.766-5.511,2.294c-1.503,1.528-2.252,3.404-2.252,5.618s.749,4.085,2.252,5.613c1.5,1.524,3.336,2.286,5.511,2.286s4.015-.762,5.521-2.286c1.503-1.528,2.257-3.398,2.257-5.613ZM190.181,15.019V4.018h4.403c1.19,0,2.122.261,2.795.787.671.526,1.01,1.258,1.01,2.189,0,1.02-.339,1.816-1.016,2.396-.503.431-1.156.697-1.947.805l3.163,4.824h-2.003l-2.836-4.761-1.833.011v4.75h-1.736ZM191.917,8.805h2.344c.809,0,1.401-.144,1.778-.435.378-.288.563-.742.563-1.364,0-.547-.185-.949-.563-1.202-.376-.259-.969-.385-1.778-.385h-2.344v3.385Z"/>
    </g>
  </g>
</svg>