<?xml version="1.0" encoding="UTF-8"?>
<svg id="Layer_2" data-name="Layer 2" xmlns="http://www.w3.org/2000/svg" xmlns:xlink="http://www.w3.org/1999/xlink" viewBox="0 0 170 52">
  <defs>
    <style>
      .cls-1 {
        clip-path: url(#clippath);
      }

      .cls-2 {
        fill: none;
      }

      .cls-2, .cls-3 {
        stroke-width: 0px;
      }

      .cls-4 {
        opacity: .9;
      }

      .cls-3 {
        fill: #fff;
      }
    </style>
    <clipPath id="clippath">
      <rect class="cls-2" width="170" height="52"/>
    </clipPath>
  </defs>
  <g id="Layer_1-2" data-name="Layer 1">
    <g class="cls-4">
      <g class="cls-1">
        <polygon class="cls-3" points="5.34 41.14 11.39 8 18.39 8 27.32 30.86 31.35 8 38.03 8 32.16 41.14 25.21 41.14 16.23 18.15 12.23 41.14 5.34 41.14"/>
        <path class="cls-3" d="m52.64,38.69c-1.08,1.07-2.16,1.83-3.24,2.31-1.08.47-2.27.71-3.58.71-2.25,0-4.04-.64-5.35-1.93-1.32-1.29-1.98-3-1.98-5.13,0-2.74.79-4.81,2.37-6.2,1.58-1.39,4.25-2.28,8-2.69.36-.05.85-.1,1.46-.16,2.95-.28,4.43-1.14,4.43-2.57,0-.66-.34-1.19-1.01-1.6-.68-.41-1.58-.61-2.72-.61s-1.97.21-2.58.63c-.61.42-.99,1.07-1.16,1.96h-6.26c.41-2.55,1.45-4.43,3.15-5.65,1.69-1.22,4.09-1.82,7.2-1.82s5.51.61,7.26,1.84c1.75,1.23,2.62,2.92,2.62,5.06,0,.22-.01.45-.03.69-.02.23-.06.48-.1.73l-2.27,13c-.05.32-.08.6-.1.84-.02.25-.03.48-.03.69,0,.4.05.74.15,1,.1.26.27.51.51.73v.61h-6.73v-2.45Zm1.19-9.34c-.98.3-2.31.61-4.01.95-3.26.61-4.88,1.87-4.88,3.76,0,.73.25,1.32.76,1.77.51.44,1.21.66,2.09.66,1.38,0,2.59-.41,3.62-1.22,1.03-.81,1.66-1.84,1.89-3.1l.52-2.81Z"/>
        <path class="cls-3" d="m90.37,16.57l-4.36,24.57h-5.9l.68-3.91c-1.35,1.62-2.68,2.79-3.98,3.5-1.3.71-2.75,1.07-4.34,1.07-2.2,0-3.96-.6-5.25-1.81-1.3-1.21-1.95-2.83-1.95-4.87,0-.5.02-.99.07-1.47s.11-.96.2-1.43l2.77-15.64h6.59l-2.77,15.43c-.06.28-.11.56-.14.83-.03.27-.05.52-.05.74,0,.92.27,1.61.8,2.09.53.48,1.29.72,2.28.72,1.65,0,3.06-.6,4.23-1.79,1.17-1.19,1.94-2.84,2.32-4.94l2.41-13.09h6.39Z"/>
        <path class="cls-3" d="m91.99,32.79h6.12c.06,1.32.48,2.35,1.27,3.09.79.74,1.86,1.11,3.21,1.11,1.21,0,2.13-.22,2.73-.66.61-.44.91-1.1.91-1.97,0-1.1-1.18-2.03-3.55-2.79l-.22-.07c-3.33-1.08-5.55-2.2-6.67-3.35-1.12-1.15-1.68-2.69-1.68-4.61,0-2.38.86-4.24,2.57-5.57,1.71-1.33,4.1-1.99,7.18-1.99s5.49.71,7.2,2.14,2.58,3.43,2.61,6.01h-6.12c-.15-1.09-.57-1.93-1.27-2.52-.7-.59-1.63-.88-2.8-.88-1.02,0-1.82.2-2.4.6-.58.4-.87.95-.87,1.65,0,.99,1.43,1.93,4.3,2.81l.16.04c3.05.95,5.11,1.98,6.19,3.12,1.08,1.13,1.62,2.67,1.62,4.62,0,2.54-.9,4.55-2.69,6.05-1.79,1.5-4.22,2.25-7.28,2.25-3.33,0-5.91-.78-7.75-2.35-1.84-1.57-2.76-3.78-2.76-6.65v-.09Z"/>
        <path class="cls-3" d="m131.86,34.1h7.04c-.66,2.43-2.04,4.33-4.14,5.71-2.1,1.38-4.65,2.07-7.65,2.07-3.36,0-5.97-1.02-7.84-3.06-1.87-2.04-2.8-4.89-2.8-8.55,0-4.2,1.18-7.64,3.54-10.32,2.36-2.68,5.4-4.02,9.12-4.02,3.38,0,6.02.96,7.92,2.87,1.9,1.91,2.86,4.55,2.86,7.91,0,.46-.03.99-.08,1.59-.05.59-.16,1.49-.33,2.69h-16.63v.16c0,1.74.4,3.08,1.19,4.02.79.94,1.93,1.41,3.4,1.41,1.01,0,1.87-.2,2.59-.61.72-.41,1.32-1.03,1.8-1.87m-8.39-7.65h9.92c0-.09,0-.23.02-.42.02-.19.02-.33.02-.42,0-1.51-.36-2.66-1.09-3.44-.73-.78-1.8-1.17-3.21-1.17s-2.7.47-3.68,1.42c-.98.94-1.65,2.29-1.99,4.03"/>
        <path class="cls-3" d="m156.52,38.69c-1.08,1.07-2.16,1.83-3.24,2.31-1.08.47-2.27.71-3.58.71-2.25,0-4.04-.64-5.35-1.93-1.32-1.29-1.98-3-1.98-5.13,0-2.74.79-4.81,2.37-6.2,1.58-1.39,4.25-2.28,8-2.69.36-.05.85-.1,1.46-.16,2.95-.28,4.43-1.14,4.43-2.57,0-.66-.34-1.19-1.01-1.6-.68-.41-1.58-.61-2.72-.61s-1.97.21-2.58.63c-.61.42-.99,1.07-1.16,1.96h-6.26c.41-2.55,1.45-4.43,3.15-5.65,1.69-1.22,4.09-1.82,7.2-1.82s5.51.61,7.26,1.84c1.75,1.23,2.62,2.92,2.62,5.06,0,.22-.01.45-.03.69-.02.23-.06.48-.1.73l-2.27,13c-.04.32-.08.6-.1.84-.02.25-.03.48-.03.69,0,.4.05.74.15,1,.1.26.27.51.51.73v.61h-6.73v-2.45Zm1.19-9.34c-.97.3-2.31.61-4.01.95-3.26.61-4.88,1.87-4.88,3.76,0,.73.26,1.32.77,1.77.51.44,1.21.66,2.09.66,1.38,0,2.59-.41,3.62-1.22s1.67-1.84,1.89-3.1l.52-2.81Z"/>
      </g>
    </g>
  </g>
</svg>